# xmcd
#
# Track frame offsets:
#	150
#	19437
#	35320
#	49210
#	63132
#	81655
#	90370
#	105212
#	118927
#	136630
#
# Disc length: 2129 seconds
#
# Revision: 6
# Processed by: cddbd v1.5.2PL0 Copyright (c) Steve Scherf et al.
# Submitted via: audiograbber 1.83.01
#
DISCID=79084f0a
DTITLE=Various Artist - New Country - Volume 3 - Number 7
DYEAR=1996
DGENRE=Country
TTITLE0=Roger Brown and Swing City - Swing City
TTITLE1=Smokin' Armadillos - Let Your Heart Lead Your Mind
TTITLE2=Charley Pride - Sea Of Heartbreak
TTITLE3=Mark Wills - Jacob's Ladder
TTITLE4=Tammy Rogers - You Will Miss Me
TTITLE5=BR5-49 - Hillbilly Thang
TTITLE6=Flaco Jimenez - Tico Taco Polka
TTITLE7=Bill Morrissey - Closed Down Mill
TTITLE8=Psychograss - Garlic and Sapphires
TTITLE9=Don Walser - Danny Boy
EXTD=
EXTT0=
EXTT1=
EXTT2=
EXTT3=
EXTT4=
EXTT5=
EXTT6=
EXTT7=
EXTT8=
EXTT9=
PLAYORDER=
